<svg width="30" height="30" viewBox="0 0 30 30" fill="none" xmlns="http://www.w3.org/2000/svg">
<g id="menu_book_FILL0_wght400_GRAD0_opsz24 2">
<path id="Vector" d="M17.5 12.375V10.25C18.1875 9.95833 18.8906 9.73958 19.6094 9.59375C20.3281 9.44792 21.0833 9.375 21.875 9.375C22.4167 9.375 22.9479 9.41667 23.4688 9.5C23.9896 9.58333 24.5 9.6875 25 9.8125V11.8125C24.5 11.625 23.9948 11.4844 23.4844 11.3906C22.974 11.2969 22.4375 11.25 21.875 11.25C21.0833 11.25 20.3229 11.349 19.5938 11.5469C18.8646 11.7448 18.1667 12.0208 17.5 12.375ZM17.5 19.25V17.125C18.1875 16.8333 18.8906 16.6146 19.6094 16.4688C20.3281 16.3229 21.0833 16.25 21.875 16.25C22.4167 16.25 22.9479 16.2917 23.4688 16.375C23.9896 16.4583 24.5 16.5625 25 16.6875V18.6875C24.5 18.5 23.9948 18.3594 23.4844 18.2656C22.974 18.1719 22.4375 18.125 21.875 18.125C21.0833 18.125 20.3229 18.2188 19.5938 18.4062C18.8646 18.5938 18.1667 18.875 17.5 19.25ZM17.5 15.8125V13.6875C18.1875 13.3958 18.8906 13.1771 19.6094 13.0312C20.3281 12.8854 21.0833 12.8125 21.875 12.8125C22.4167 12.8125 22.9479 12.8542 23.4688 12.9375C23.9896 13.0208 24.5 13.125 25 13.25V15.25C24.5 15.0625 23.9948 14.9219 23.4844 14.8281C22.974 14.7344 22.4375 14.6875 21.875 14.6875C21.0833 14.6875 20.3229 14.7865 19.5938 14.9844C18.8646 15.1823 18.1667 15.4583 17.5 15.8125ZM8.125 20C9.10417 20 10.0573 20.1094 10.9844 20.3281C11.9115 20.5469 12.8333 20.875 13.75 21.3125V9C12.8958 8.5 11.9896 8.125 11.0312 7.875C10.0729 7.625 9.10417 7.5 8.125 7.5C7.375 7.5 6.63021 7.57292 5.89062 7.71875C5.15104 7.86458 4.4375 8.08333 3.75 8.375V20.75C4.47917 20.5 5.20312 20.3125 5.92188 20.1875C6.64062 20.0625 7.375 20 8.125 20ZM16.25 21.3125C17.1667 20.875 18.0885 20.5469 19.0156 20.3281C19.9427 20.1094 20.8958 20 21.875 20C22.625 20 23.3594 20.0625 24.0781 20.1875C24.7969 20.3125 25.5208 20.5 26.25 20.75V8.375C25.5625 8.08333 24.849 7.86458 24.1094 7.71875C23.3698 7.57292 22.625 7.5 21.875 7.5C20.8958 7.5 19.9271 7.625 18.9688 7.875C18.0104 8.125 17.1042 8.5 16.25 9V21.3125ZM15 25C14 24.2083 12.9167 23.5938 11.75 23.1562C10.5833 22.7188 9.375 22.5 8.125 22.5C7.25 22.5 6.39062 22.6146 5.54688 22.8438C4.70312 23.0729 3.89583 23.3958 3.125 23.8125C2.6875 24.0417 2.26562 24.0312 1.85938 23.7812C1.45312 23.5312 1.25 23.1667 1.25 22.6875V7.625C1.25 7.39583 1.30729 7.17708 1.42188 6.96875C1.53646 6.76042 1.70833 6.60417 1.9375 6.5C2.89583 6 3.89583 5.625 4.9375 5.375C5.97917 5.125 7.04167 5 8.125 5C9.33333 5 10.5156 5.15625 11.6719 5.46875C12.8281 5.78125 13.9375 6.25 15 6.875C16.0625 6.25 17.1719 5.78125 18.3281 5.46875C19.4844 5.15625 20.6667 5 21.875 5C22.9583 5 24.0208 5.125 25.0625 5.375C26.1042 5.625 27.1042 6 28.0625 6.5C28.2917 6.60417 28.4635 6.76042 28.5781 6.96875C28.6927 7.17708 28.75 7.39583 28.75 7.625V22.6875C28.75 23.1667 28.5469 23.5312 28.1406 23.7812C27.7344 24.0312 27.3125 24.0417 26.875 23.8125C26.1042 23.3958 25.2969 23.0729 24.4531 22.8438C23.6094 22.6146 22.75 22.5 21.875 22.5C20.625 22.5 19.4167 22.7188 18.25 23.1562C17.0833 23.5938 16 24.2083 15 25Z" fill="#CBB26A"/>
</g>
</svg>
